<?xml version="1.0" encoding="UTF-8"?>
<svg version="1.1" xmlns="http://www.w3.org/2000/svg" width="512" height="512">
<path d="M0 0 C102.3 0 204.6 0 310 0 C310.33 10.89 310.66 21.78 311 33 C313.97 32.67 316.94 32.34 320 32 C346.59618422 30.44480539 372.52288231 34.76717753 393.3671875 52.5234375 C411.51373495 69.59303851 420.05819841 93.72572336 423 118 C423.02313271 120.30732267 422.99560865 122.61561475 422.921875 124.921875 C422.89609375 126.19417969 422.8703125 127.46648437 422.84375 128.77734375 C422.79662037 130.7744619 422.74922395 132.77167181 422.67773438 134.76806641 C422.61125379 136.71452282 422.57857117 138.66204154 422.546875 140.609375 C422.51432617 141.76405273 422.48177734 142.91873047 422.44824219 144.10839844 C422.69448373 147.20091199 422.69448373 147.20091199 425.41674805 148.73608398 C426.26922119 149.15317627 427.12169434 149.57026855 428 150 C431.36203606 154.92166767 431.50831868 159.42891305 431.4375 165.1875 C431.43137695 166.02885498 431.42525391 166.87020996 431.41894531 167.73706055 C431.2517563 174.41754748 430.11526276 180.02728933 427 186 C426.53207031 186.95132813 426.53207031 186.95132813 426.0546875 187.921875 C424.38945091 190.86052781 423.00636606 191.99701185 419.9375 193.4375 C417 194 417 194 414 193 C413.90589844 193.66 413.81179688 194.32 413.71484375 195 C409.6508029 212.05564684 397.22075973 227.9969161 384 239 C382.74791708 239.71505131 381.47712409 240.39814074 380.19140625 241.05078125 C373.55158996 244.22176297 373.55158996 244.22176297 369.19189453 249.88671875 C367.47849118 257.12145993 368.6153244 264.03153142 372.3046875 270.44140625 C378.05920457 279.10805167 384.9882972 284.90094127 394 290 C395.33417969 290.93779297 395.33417969 290.93779297 396.6953125 291.89453125 C401.1022462 294.70225851 405.75710889 296.76147158 410.5 298.9375 C438.26162401 311.98521924 474.70896956 331.3223441 486 362 C490.65510442 376.35180718 493.38169411 391.02655615 495 406 C495.14646973 407.35230713 495.14646973 407.35230713 495.29589844 408.73193359 C497.35093834 428.4277958 498.06075737 448.20409336 498.125 468 C498.12967285 468.94085449 498.1343457 469.88170898 498.13916016 470.85107422 C498.11879702 479.95026342 497.50713401 488.87158773 497 498 C386.78 498 276.56 498 163 498 C163 429 163 429 165 409 C110.55 409 56.1 409 0 409 C0 274.03 0 139.06 0 0 Z " fill="#465C6A" transform="translate(7,7)"/>
<path d="M0 0 C102.3 0 204.6 0 310 0 C310 11.22 310 22.44 310 34 C307.69 34.66 305.38 35.32 303 36 C294.51734384 38.5252833 286.82390769 41.87595227 279 46 C277.6684468 46.67021511 276.33584427 47.33837902 275 48 C275 46.35 275 44.7 275 43 C241.01 43 207.02 43 172 43 C172 53.23 172 63.46 172 74 C198.4 74 224.8 74 252 74 C249.36 80.6 246.72 87.2 244 94 C241.7314951 101.27084905 240.07362713 107.4846101 239 115 C216.89 115 194.78 115 172 115 C172 125.56 172 136.12 172 147 C193.45 147 214.9 147 237 147 C236 151 236 151 234.4375 154 C229.70040496 164.82101121 234.5460797 177.63823909 238 188 C171.01 188 104.02 188 35 188 C35 198.56 35 209.12 35 220 C37.82975403 219.97113205 40.65950806 219.9422641 43.57501221 219.91252136 C69.55797581 219.65352741 95.54080181 219.45961026 121.52477367 219.33615072 C124.93416152 219.31989262 128.34354635 219.30306632 131.75292969 219.28588867 C132.77099835 219.28077362 132.77099835 219.28077362 133.80963406 219.27555523 C144.78216178 219.21907298 155.75379904 219.11662334 166.72579947 218.99701365 C177.99425823 218.87520184 189.26227424 218.80415821 200.53142428 218.77684957 C206.85736009 218.75992496 213.1812803 218.7202585 219.50656891 218.62550926 C225.46618586 218.53696468 231.42296644 218.5101074 237.38317871 218.52960014 C239.56492304 218.52603685 241.74676659 218.50034859 243.92794037 218.45032883 C261.25367525 218.0726475 261.25367525 218.0726475 266.87068939 222.83513832 C269.97743498 225.9574584 272.44201725 229.42375638 275 233 C276.56197905 234.54388217 278.15792799 236.05579013 279.8125 237.5 C280.45832031 238.0671875 281.10414063 238.634375 281.76953125 239.21875 C283.85098148 240.98682742 283.85098148 240.98682742 285.8112793 241.98754883 C287.86587786 243.18056658 289.4154093 244.22288385 291 246 C291.71085067 249.25314738 291.40112737 252.38237934 291.1875 255.6875 C291.13451812 262.880984 291.13451812 262.880984 294.25390625 269.18359375 C296.83746975 271.28884432 299.43410355 273.16584798 302.27539062 274.90673828 C304.60357239 276.38261568 306.72761889 278.06912795 308.88500977 279.78125 C315.46891525 285.00458122 322.26423106 289.97548047 329 295 C325.41637687 303.56525309 315.96291011 310.12626019 309 316 C310.75800476 320.91316068 313.44175364 325.20026472 316.25390625 329.56445312 C319.59390539 335.10053228 319.61892375 339.4099659 318.51475525 345.81463623 C317.97087702 349.18021631 317.68977803 352.49034418 317.45922852 355.89160156 C317.41352722 356.55250793 317.36782593 357.21341431 317.32073975 357.89434814 C317.22245661 359.31834222 317.12538733 360.7424205 317.02942085 362.16657257 C316.87695903 364.41939782 316.71983073 366.67185203 316.56126404 368.92425537 C316.11100505 375.3243399 315.66494034 381.724683 315.23217773 388.12597656 C314.96657557 392.04973005 314.6920677 395.97277344 314.411726 399.89550018 C314.30669674 401.38963375 314.20506708 402.88401027 314.10687447 404.3786087 C313.96971656 406.46175326 313.82127024 408.54380396 313.67016602 410.62597656 C313.58879898 411.81145081 313.50743195 412.99692505 313.42359924 414.21832275 C313 417 313 417 311 419 C310.77962318 418.04577904 310.77962318 418.04577904 310.55479431 417.07228088 C306.72555192 400.51996436 302.81307128 383.98833542 298.85905838 367.46540451 C298.06257256 364.13632001 297.26690754 360.80704041 296.4715271 357.47769165 C296.07232591 355.80675414 296.07232591 355.80675414 295.66506004 354.10206032 C295.12272523 351.83194218 294.58040888 349.56181963 294.03811073 347.29169273 C292.651205 341.48751973 291.26218771 335.68386441 289.86938477 329.88110352 C288.50131693 324.18076343 287.13870211 318.47914463 285.77979851 312.77661324 C285.26547799 310.62274982 284.74914982 308.46936475 284.23074532 306.31648064 C283.51265035 303.33321208 282.80153101 300.34836195 282.09204102 297.36303711 C281.87862061 296.48372025 281.6652002 295.60440338 281.4453125 294.69844055 C280.50877399 290.7274386 279.71911373 287.11344821 280 283 C278.35 283.66 276.7 284.32 275 285 C275 277.41 275 269.82 275 262 C195.8 262 116.6 262 35 262 C35 272.23 35 282.46 35 293 C109.91 293 184.82 293 262 293 C260.72378508 295.55242984 259.73479295 295.74799428 257.15234375 296.890625 C256.33137207 297.2630835 255.51040039 297.63554199 254.66455078 298.01928711 C253.76462402 298.42542236 252.86469727 298.83155762 251.9375 299.25 C223.53264307 312.00680372 223.53264307 312.00680372 199.70502377 331.53269386 C195.91752367 335.69623531 192.68561977 336.45441816 187.1219635 336.7215271 C184.28297986 336.76091617 181.44837565 336.72408862 178.60961914 336.68115234 C177.04210475 336.6794584 175.4745856 336.68041282 173.90707397 336.68380737 C169.6654679 336.6855248 165.42488547 336.65031693 161.18351674 336.60836363 C156.74596844 336.57078678 152.30839514 336.56732581 147.87071228 336.56021118 C139.47359388 336.54158269 131.0769457 336.49237292 122.6800341 336.43211424 C113.11784698 336.36498677 103.55563709 336.33204445 93.9932729 336.30194163 C74.32852808 336.23927175 54.66442761 336.12926439 35 336 C35 346.23 35 356.46 35 367 C80.54 367 126.08 367 173 367 C171.35 375.58 169.7 384.16 168 393 C167.01 400.92 167.01 400.92 166 409 C111.22 409 56.44 409 0 409 C0 274.03 0 139.06 0 0 Z " fill="#D3D7DA" transform="translate(7,7)"/>
<path d="M0 0 C19.99652491 17.03407678 29.28399757 42.3070926 32.375 67.8125 C32.39813271 70.11982267 32.37060865 72.42811475 32.296875 74.734375 C32.27109375 76.00667969 32.2453125 77.27898437 32.21875 78.58984375 C32.17162037 80.5869619 32.12422395 82.58417181 32.05273438 84.58056641 C31.98625379 86.52702282 31.95357117 88.47454154 31.921875 90.421875 C31.88932617 91.57655273 31.85677734 92.73123047 31.82324219 93.92089844 C32.06948373 97.01341199 32.06948373 97.01341199 34.79174805 98.54858398 C35.64422119 98.96567627 36.49669434 99.38276855 37.375 99.8125 C40.73703606 104.73416767 40.88331868 109.24141305 40.8125 115 C40.80637695 115.84135498 40.80025391 116.68270996 40.79394531 117.54956055 C40.6267563 124.23004748 39.49026276 129.83978933 36.375 135.8125 C35.90707031 136.76382813 35.90707031 136.76382813 35.4296875 137.734375 C33.76445091 140.67302781 32.38136606 141.80951185 29.3125 143.25 C26.375 143.8125 26.375 143.8125 23.375 142.8125 C23.28089844 143.4725 23.18679688 144.1325 23.08984375 144.8125 C19.0258029 161.86814684 6.59575973 177.8094161 -6.625 188.8125 C-7.87708292 189.52755131 -9.14787591 190.21064074 -10.43359375 190.86328125 C-17.08681441 194.0291886 -17.08681441 194.0291886 -21.41699219 199.71533203 C-22.77869446 205.74631969 -22.65689275 212.42272023 -19.41943359 217.82373047 C-17.9649195 219.73527886 -16.44925813 221.56102197 -14.875 223.375 C-9.64261288 229.50779171 -9.64261288 229.50779171 -9.57421875 234.57421875 C-10.32432497 238.22603971 -11.57244863 241.71590196 -12.80175781 245.22998047 C-14.40601453 250.26255091 -15.35387603 255.4605257 -16.4375 260.625 C-18.76159553 271.25071408 -21.34212035 281.7970872 -24.02099609 292.33813477 C-26.01083543 300.21827008 -27.83708906 308.12056943 -29.5625 316.0625 C-31.73480101 326.04847968 -34.11815835 335.96895833 -36.625 345.875 C-39.36553312 356.70560111 -41.99532224 367.55351897 -44.47875977 378.4465332 C-46.35562066 386.67584635 -48.30660788 394.88518291 -50.29638672 403.08789062 C-51.73618003 409.04292851 -53.13192176 415.00600646 -54.48828125 420.98046875 C-54.80529169 422.36884439 -55.12242974 423.7571909 -55.43969727 425.14550781 C-55.90611622 427.18653227 -56.37007971 429.22794243 -56.82589722 431.2713623 C-57.24731023 433.16021498 -57.67813388 435.04696065 -58.109375 436.93359375 C-58.35397461 438.0208374 -58.59857422 439.10808105 -58.85058594 440.22827148 C-59.625 442.8125 -59.625 442.8125 -61.625 444.8125 C-61.83575668 443.91936096 -62.04651337 443.02622192 -62.26365662 442.10601807 C-64.24976156 433.68956511 -66.23611962 425.27317194 -68.22276211 416.85684586 C-69.24410688 412.52992241 -70.26535371 408.20297589 -71.28637695 403.87597656 C-72.27169677 399.70030104 -73.25727356 395.52468625 -74.24302864 391.34911346 C-74.61909198 389.75593985 -74.99506267 388.16274436 -75.37093925 386.56952667 C-75.89735694 384.33828536 -76.42410376 382.10712198 -76.95092773 379.87597656 C-77.2507103 378.60578674 -77.55049286 377.33559692 -77.85935974 376.0269165 C-78.3006424 374.17426281 -78.76507108 372.32613257 -79.29212952 370.49603271 C-79.625 368.8125 -79.625 368.8125 -78.625 366.8125 C-78.39379097 364.69230858 -78.21836766 362.56595554 -78.06835938 360.43847656 C-78.02105179 359.78457947 -77.9737442 359.13068237 -77.92500305 358.45697021 C-77.76906415 356.28927825 -77.6190117 354.12121724 -77.46875 351.953125 C-77.36092399 350.44574815 -77.25264131 348.93840391 -77.1439209 347.43109131 C-76.85800942 343.45520228 -76.5766946 339.47900321 -76.29681396 335.50268555 C-75.84967635 329.15221946 -75.3983309 322.802064 -74.94184875 316.45226288 C-74.78373272 314.23789482 -74.62922449 312.02329511 -74.47497559 309.80865479 C-74.37734528 308.44045981 -74.27957428 307.07227486 -74.18164062 305.70410156 C-74.09805298 304.51544495 -74.01446533 303.32678833 -73.92834473 302.10211182 C-73.63906294 298.96500511 -73.16528088 295.91469926 -72.625 292.8125 C-71.90550084 285.61750844 -73.78909744 281.9775879 -77.75 276.0625 C-78.72542513 274.5980889 -79.68712872 273.12441617 -80.6328125 271.640625 C-81.06223145 271.0002832 -81.49165039 270.35994141 -81.93408203 269.70019531 C-82.625 267.8125 -82.625 267.8125 -81.97387695 265.79394531 C-80.50686669 263.63896698 -78.96469211 262.03391781 -77.03515625 260.28125 C-76.33326172 259.63542969 -75.63136719 258.98960937 -74.90820312 258.32421875 C-74.17537109 257.66035156 -73.44253906 256.99648438 -72.6875 256.3125 C-71.2381508 254.99257986 -69.79144034 253.66975519 -68.34765625 252.34375 C-67.70578369 251.76173828 -67.06391113 251.17972656 -66.40258789 250.58007812 C-64.58987548 248.77757327 -63.10629825 246.89219594 -61.625 244.8125 C-62.20588379 244.54171631 -62.78676758 244.27093262 -63.38525391 243.99194336 C-65.62562435 242.81217122 -67.47209137 241.50407106 -69.4609375 239.94140625 C-70.18925781 239.37196289 -70.91757812 238.80251953 -71.66796875 238.21582031 C-72.43753906 237.60834961 -73.20710938 237.00087891 -74 236.375 C-75.18916016 235.44252441 -75.18916016 235.44252441 -76.40234375 234.49121094 C-78.02556628 233.21777593 -79.64763674 231.94287105 -81.26855469 230.66650391 C-83.45895897 228.94313776 -85.65408161 227.22604698 -87.8515625 225.51171875 C-89.10948122 224.52878176 -90.36729989 223.54571669 -91.625 222.5625 C-92.20556152 222.1094751 -92.78612305 221.6564502 -93.38427734 221.18969727 C-95.57052671 219.47419515 -97.65782802 217.77967198 -99.625 215.8125 C-99.75341797 213.89233398 -99.75341797 213.89233398 -99.6171875 211.55859375 C-99.03838539 201.61683131 -99.03838539 201.61683131 -102.93359375 192.91015625 C-105.52808517 191.09839826 -108.15968141 189.48826619 -110.90820312 187.92431641 C-114.06238751 185.88163215 -116.58445525 183.18815903 -119.1875 180.5 C-119.68741455 179.99533203 -120.1873291 179.49066406 -120.70239258 178.97070312 C-124.4681309 175.11924801 -124.4681309 175.11924801 -125.71747303 172.6762352 C-128.81268412 169.65208196 -132.54842532 170.25735658 -136.64152527 170.29351807 C-137.57513848 170.28601681 -138.50875169 170.27851556 -139.47065622 170.270787 C-142.61241494 170.2504181 -145.75345829 170.2586306 -148.89526367 170.26660156 C-151.14199034 170.25787157 -153.38871078 170.24738781 -155.63542175 170.23527527 C-161.74666856 170.20732456 -167.85771342 170.20401259 -173.96901488 170.20499516 C-180.35124131 170.20187384 -186.73337572 170.17627198 -193.11555481 170.15301514 C-203.8315213 170.1170112 -214.54741294 170.09493842 -225.26342773 170.08349609 C-236.3015488 170.07167178 -247.33960223 170.05148316 -258.37768555 170.02001953 C-259.05793237 170.01808343 -259.73817919 170.01614733 -260.43903955 170.01415256 C-263.8515963 170.00438813 -267.26415255 169.994459 -270.67670858 169.98444796 C-298.99277484 169.90159338 -327.30883893 169.84872445 -355.625 169.8125 C-355.625 159.2525 -355.625 148.6925 -355.625 137.8125 C-288.635 137.8125 -221.645 137.8125 -152.625 137.8125 C-154.605 133.3575 -154.605 133.3575 -156.625 128.8125 C-160.2613876 116.26696279 -159.16704515 109.00499932 -153.625 96.8125 C-175.075 96.8125 -196.525 96.8125 -218.625 96.8125 C-218.625 86.2525 -218.625 75.6925 -218.625 64.8125 C-196.515 64.8125 -174.405 64.8125 -151.625 64.8125 C-151.625 62.5025 -151.625 60.1925 -151.625 57.8125 C-151.00765603 54.52727728 -149.9884977 51.37921645 -149 48.1875 C-148.76410156 47.37410156 -148.52820313 46.56070313 -148.28515625 45.72265625 C-146.02529189 38.27089838 -142.97275581 32.06597093 -139.625 24.8125 C-165.695 24.4825 -191.765 24.1525 -218.625 23.8125 C-218.625 13.5825 -218.625 3.3525 -218.625 -7.1875 C-184.635 -7.1875 -150.645 -7.1875 -115.625 -7.1875 C-115.295 -5.8675 -114.965 -4.5475 -114.625 -3.1875 C-114.05394531 -3.56261719 -113.48289062 -3.93773437 -112.89453125 -4.32421875 C-80.03171394 -25.06593333 -30.92036719 -24.05870457 0 0 Z " fill="#C5A18A" transform="translate(397.625,57.1875)"/>
<path d="M0 0 C4.78404646 2.50757991 9.29833052 5.15361263 13.6484375 8.36328125 C18.76403267 11.97637738 24.0505961 14.5700948 29.75 17.125 C57.46566604 30.00966109 93.75939494 49.45934953 105 80 C109.65510442 94.35180718 112.38169411 109.02655615 114 124 C114.09764648 124.90153809 114.19529297 125.80307617 114.29589844 126.73193359 C116.35093834 146.4277958 117.06075737 166.20409336 117.125 186 C117.12967285 186.94085449 117.1343457 187.88170898 117.13916016 188.85107422 C117.12529361 195.04728709 116.84926469 201.21059271 116.49169922 207.39453125 C116.44460312 208.22456665 116.39750702 209.05460205 116.34898376 209.90979004 C116.23365225 211.93991688 116.11696468 213.9699666 116 216 C97.76961528 216.02350757 79.53923457 216.04106593 61.30883789 216.05181217 C52.84146616 216.05693759 44.37410392 216.06390742 35.90673828 216.07543945 C28.5144376 216.08550239 21.12214381 216.09188061 13.72983646 216.09408849 C9.8267284 216.09537619 5.92364 216.09833558 2.02053833 216.10573006 C-15.67541734 216.13799518 -33.32364054 215.95550591 -51 215 C-50.84592382 213.55836761 -50.69011941 212.11691986 -50.53358459 210.67555237 C-50.44700624 209.87282678 -50.36042788 209.07010118 -50.27122593 208.24305058 C-49.96409573 205.70307006 -49.47998132 203.26189654 -48.87109375 200.77734375 C-48.64502441 199.8443042 -48.41895508 198.91126465 -48.18603516 197.94995117 C-47.93901855 196.95584229 -47.69200195 195.9617334 -47.4375 194.9375 C-47.17501465 193.86024658 -46.9125293 192.78299316 -46.64208984 191.6730957 C-45.15945874 185.61306694 -43.63916634 179.56290943 -42.10546875 173.515625 C-41.44469215 170.90640457 -40.78430936 168.29709094 -40.125 165.6875 C-39.95775421 165.0259491 -39.79050842 164.36439819 -39.61819458 163.68280029 C-36.84524008 152.6834749 -34.30800304 141.64163737 -31.875 130.5625 C-31.70729095 129.79884125 -31.53958191 129.0351825 -31.36679077 128.24838257 C-31.2002298 127.48990021 -31.03366882 126.73141785 -30.86206055 125.94995117 C-27.58194499 111.02027181 -24.06491815 96.15637787 -20.3203125 81.3359375 C-17.22648203 69.08869589 -14.2440627 56.83046857 -11.5 44.5 C-9.16215596 34.00918156 -6.72034435 23.55473787 -4.125 13.125 C-3.67737305 11.31418945 -3.67737305 11.31418945 -3.22070312 9.46679688 C-2.94419922 8.36658203 -2.66769531 7.26636719 -2.3828125 6.1328125 C-2.13934082 5.16230957 -1.89586914 4.19180664 -1.64501953 3.19189453 C-1 1 -1 1 0 0 Z " fill="#3B4C56" transform="translate(388,289)"/>
<path d="M0 0 C19.81029234 16.87543421 29.58333255 42.40315644 32.375 67.8125 C33.74656211 90.55870333 31.80633444 113.18061286 21.375 133.8125 C19.725 133.4825 18.075 133.1525 16.375 132.8125 C15.94427068 125.98084671 15.51744021 119.14895767 15.09326172 112.31689453 C14.94864251 109.99489891 14.80314567 107.67295777 14.65673828 105.35107422 C14.44590699 102.0050239 14.23827946 98.65878744 14.03125 95.3125 C13.96562866 94.2819751 13.90000732 93.2514502 13.83239746 92.18969727 C13.49716435 86.71759572 13.30647103 81.29481733 13.375 75.8125 C12.7459375 75.78671875 12.116875 75.7609375 11.46875 75.734375 C2.09927045 75.11350587 -5.2611877 71.84693826 -11.625 64.8125 C-14.1346109 61.24491587 -16.42186411 57.57591145 -18.625 53.8125 C-19.470625 54.658125 -20.31625 55.50375 -21.1875 56.375 C-34.60130305 67.79558733 -54.76353698 71.84353807 -71.625 74.8125 C-72.67558594 75.00714844 -73.72617187 75.20179688 -74.80859375 75.40234375 C-88.98539914 77.92799048 -103.02579815 77.9390158 -117.375 77.875 C-119.34374886 77.86997437 -121.31249896 77.86541335 -123.28125 77.86132812 C-128.06253118 77.85040809 -132.84375158 77.83320218 -137.625 77.8125 C-137.61976318 78.45348633 -137.61452637 79.09447266 -137.60913086 79.75488281 C-137.4877305 97.13203759 -137.88639387 114.45132716 -138.625 131.8125 C-140.605 132.8025 -140.605 132.8025 -142.625 133.8125 C-148.65288447 122.87300596 -153.625 109.41117996 -153.625 96.8125 C-175.075 96.8125 -196.525 96.8125 -218.625 96.8125 C-218.625 86.2525 -218.625 75.6925 -218.625 64.8125 C-196.515 64.8125 -174.405 64.8125 -151.625 64.8125 C-151.625 62.5025 -151.625 60.1925 -151.625 57.8125 C-151.00765603 54.52727728 -149.9884977 51.37921645 -149 48.1875 C-148.76410156 47.37410156 -148.52820313 46.56070313 -148.28515625 45.72265625 C-146.02529189 38.27089838 -142.97275581 32.06597093 -139.625 24.8125 C-165.695 24.4825 -191.765 24.1525 -218.625 23.8125 C-218.625 13.5825 -218.625 3.3525 -218.625 -7.1875 C-184.635 -7.1875 -150.645 -7.1875 -115.625 -7.1875 C-115.13 -5.2075 -115.13 -5.2075 -114.625 -3.1875 C-114.05394531 -3.56261719 -113.48289062 -3.93773437 -112.89453125 -4.32421875 C-80.03171394 -25.06593333 -30.92036719 -24.05870457 0 0 Z " fill="#465C6A" transform="translate(397.625,57.1875)"/>
<path d="M0 0 C51.15 0 102.3 0 155 0 C155 11.22 155 22.44 155 34 C152.69 34.66 150.38 35.32 148 36 C139.51734384 38.5252833 131.82390769 41.87595227 124 46 C122.6684468 46.67021511 121.33584427 47.33837902 120 48 C120 46.35 120 44.7 120 43 C86.01 43 52.02 43 17 43 C17 53.23 17 63.46 17 74 C43.4 74 69.8 74 97 74 C93.04 83.9 93.04 83.9 89 94 C86.7314951 101.27084905 85.07362713 107.4846101 84 115 C61.89 115 39.78 115 17 115 C17 125.56 17 136.12 17 147 C38.45 147 59.9 147 82 147 C81 151 81 151 79.4375 154 C74.70040496 164.82101121 79.5460797 177.63823909 83 188 C55.61 188 28.22 188 0 188 C0 125.96 0 63.92 0 0 Z " fill="#E5E5E7" transform="translate(162,7)"/>
<path d="M0 0 C34.32 0 68.64 0 104 0 C104 34.32 104 68.64 104 104 C69.68 104 35.36 104 0 104 C0 69.68 0 35.36 0 0 Z " fill="#62C2A6" transform="translate(42,50)"/>
<path d="M0 0 C2.08450753 2.70191298 3.90686411 5.46679811 5.6875 8.375 C10.7518218 15.959009 17.19844361 19.89791007 26 22 C27.99709368 22.3503255 29.99669179 22.68716247 32 23 C33.52190895 41.98960674 34.81335885 60.98703256 36 80 C37.32 80 38.64 80 40 80 C44.05192675 68.45200877 47.42504375 56.96597315 50 45 C54.78125 45.765625 54.78125 45.765625 56.75 47.875 C61.11576553 55.2968014 60.00787217 67.33663293 58.24609375 75.48828125 C57.31980063 78.11459469 56.28690159 80.53269901 55 83 C54.53207031 83.95132813 54.53207031 83.95132813 54.0546875 84.921875 C52.38945091 87.86052781 51.00636606 88.99701185 47.9375 90.4375 C45 91 45 91 42 90 C41.85884766 90.99 41.85884766 90.99 41.71484375 92 C36.88231337 112.28078322 20.77907045 131.01477977 3.55932617 141.9230957 C-10.27434415 150.1683172 -24.98911801 152.99931988 -41 154 C-41 109.78 -41 65.56 -41 20 C-33.17586837 16.64680073 -33.17586837 16.64680073 -30.0546875 15.640625 C-13.59299561 10.29587827 -13.59299561 10.29587827 0 0 Z " fill="#D4B69E" transform="translate(379,110)"/>
<path d="M0 0 C13.87409234 -0.29435593 27.74609309 -0.53256362 41.62260818 -0.67355824 C48.06697342 -0.74124877 54.509082 -0.83296714 60.95214844 -0.98071289 C67.17692782 -1.12255069 73.39954511 -1.19981293 79.62581635 -1.23340416 C81.99425028 -1.25732287 84.36257306 -1.30403554 86.73007965 -1.37449074 C106.26239677 -1.93234338 106.26239677 -1.93234338 112.03234863 2.82241821 C115.14332587 5.92500397 117.51891471 9.38577223 120 13 C121.55881194 14.54707984 123.1544925 16.0597355 124.8125 17.5 C125.45832031 18.0671875 126.10414063 18.634375 126.76953125 19.21875 C128.85098148 20.98682742 128.85098148 20.98682742 130.8112793 21.98754883 C132.86587786 23.18056658 134.4154093 24.22288385 136 26 C136.71085067 29.25314738 136.40112737 32.38237934 136.1875 35.6875 C136.13451812 42.880984 136.13451812 42.880984 139.25390625 49.18359375 C141.83746975 51.28884432 144.43410355 53.16584798 147.27539062 54.90673828 C149.60357239 56.38261568 151.72761889 58.06912795 153.88500977 59.78125 C160.46891525 65.00458122 167.26423106 69.97548047 174 75 C170.41637687 83.56525309 160.96291011 90.12626019 154 96 C155.75800476 100.91316068 158.44175364 105.20026472 161.25390625 109.56445312 C164.59390539 115.10053228 164.61892375 119.4099659 163.51475525 125.81463623 C162.97087702 129.18021631 162.68977803 132.49034418 162.45922852 135.89160156 C162.39067657 136.88296112 162.39067657 136.88296112 162.32073975 137.89434814 C162.22245661 139.31834222 162.12538733 140.7424205 162.02942085 142.16657257 C161.87695903 144.41939782 161.71983073 146.67185203 161.56126404 148.92425537 C161.11100505 155.3243399 160.66494034 161.724683 160.23217773 168.12597656 C159.96657557 172.04973005 159.6920677 175.97277344 159.411726 179.89550018 C159.30669674 181.38963375 159.20506708 182.88401027 159.10687447 184.3786087 C158.96971656 186.46175326 158.82127024 188.54380396 158.67016602 190.62597656 C158.58879898 191.81145081 158.50743195 192.99692505 158.42359924 194.21832275 C158 197 158 197 156 199 C155.85308212 198.36385269 155.70616425 197.72770538 155.55479431 197.07228088 C151.72555192 180.51996436 147.81307128 163.98833542 143.85905838 147.46540451 C143.06257256 144.13632001 142.26690754 140.80704041 141.4715271 137.47769165 C141.20539297 136.36373331 140.93925884 135.24977497 140.66506004 134.10206032 C140.12272523 131.83194218 139.58040888 129.56181963 139.03811073 127.29169273 C137.651205 121.48751973 136.26218771 115.68386441 134.86938477 109.88110352 C133.50131693 104.18076343 132.13870211 98.47914463 130.77979851 92.77661324 C130.26547799 90.62274982 129.74914982 88.46936475 129.23074532 86.31648064 C128.51265035 83.33321208 127.80153101 80.34836195 127.09204102 77.36303711 C126.87862061 76.48372025 126.6652002 75.60440338 126.4453125 74.69844055 C125.50877399 70.7274386 124.71911373 67.11344821 125 63 C123.35 63.66 121.7 64.32 120 65 C120 57.41 120 49.82 120 42 C80.4 42 40.8 42 0 42 C0 28.14 0 14.28 0 0 Z " fill="#EBEBEC" transform="translate(162,227)"/>
<path d="M0 0 C79.2 0 158.4 0 240 0 C240 24 240 24 235.39324951 29.44897461 C226.09873432 33.76815728 215.73276992 33.00277776 205.70800781 32.81640625 C203.45997696 32.80427218 201.21192453 32.7956957 198.96386719 32.79039001 C192.88970296 32.76605061 186.81704757 32.69221658 180.74343967 32.60922241 C174.38553027 32.5308498 168.02738691 32.49836884 161.66912842 32.4609375 C151.00659131 32.39202184 140.34468497 32.29503033 129.68261719 32.17626953 C118.70616177 32.05408448 107.7297597 31.94900531 96.75292969 31.86669922 C95.73610622 31.85906604 95.73610622 31.85906604 94.69874087 31.85127866 C91.29762226 31.82585163 87.89650128 31.80075847 84.49537897 31.77583122 C56.32968705 31.5689703 28.16482321 31.30150893 0 31 C0 20.77 0 10.54 0 0 Z " fill="#1576AC" transform="translate(42,269)"/>
<path d="M0 0 C6.95732169 0 13.08619697 0.01555611 19.8125 1.1875 C20.96407593 1.38605591 20.96407593 1.38605591 22.13891602 1.58862305 C43.48547068 5.53283031 61.29534858 16.3050965 74 34 C90.76615376 58.71888789 96.33657884 92.99347979 90.8359375 122.04296875 C88.5679811 132.3308791 85.77133958 142.56288146 81 152 C79.35 151.67 77.7 151.34 76 151 C75.56927068 144.16834671 75.14244021 137.33645767 74.71826172 130.50439453 C74.57364251 128.18239891 74.42814567 125.86045777 74.28173828 123.53857422 C74.07090699 120.1925239 73.86327946 116.84628744 73.65625 113.5 C73.59062866 112.4694751 73.52500732 111.4389502 73.45739746 110.37719727 C73.12216435 104.90509572 72.93147103 99.48231733 73 94 C72.3709375 93.97421875 71.741875 93.9484375 71.09375 93.921875 C61.72427045 93.30100587 54.3638123 90.03443826 48 83 C45.4903891 79.43241587 43.20313589 75.76341145 41 72 C40.154375 72.845625 39.30875 73.69125 38.4375 74.5625 C29.33069425 82.31608562 12.10779952 90 0 90 C0 60.3 0 30.6 0 0 Z " fill="#3B4C56" transform="translate(338,39)"/>
<path d="M0 0 C67.32 0 134.64 0 204 0 C204.33 0.99 204.66 1.98 205 3 C207.97 3.33 210.94 3.66 214 4 C214.4021875 5.05574219 214.4021875 5.05574219 214.8125 6.1328125 C218.1635461 14.57656683 222.40231955 22.20113083 227 30 C227.33 30.66 227.66 31.32 228 32 C152.76 32 77.52 32 0 32 C0 21.44 0 10.88 0 0 Z " fill="#1576AC" transform="translate(42,195)"/>
<path d="M0 0 C4.5532139 0.5121577 7.16171802 3.64172894 10.3125 6.6875 C11.46790121 7.78084558 12.62414418 8.87330235 13.78125 9.96484375 C14.33425781 10.48933105 14.88726562 11.01381836 15.45703125 11.55419922 C18.21799898 14.14129588 21.09965668 16.57180559 24 19 C22.71854964 23.41388458 20.98973337 26.61968335 18.375 30.375 C15.62276461 35.08838657 14.56749925 38.35393698 14.66796875 43.8046875 C14.6796962 44.4789679 14.69142365 45.15324829 14.70350647 45.84796143 C14.98739986 56.83465849 16.03138472 67.80169238 16.9375 78.75 C17.56903085 86.47918348 18.18930963 94.20899446 18.77017212 101.94216919 C18.91962374 103.93060411 19.07226215 105.91880297 19.22860718 107.90670776 C19.9978112 117.93010572 20.46214972 126.83547086 17.4375 136.5625 C16.87108657 138.58875387 16.30874551 140.61614953 15.75 142.64453125 C15.45867187 143.67787598 15.16734375 144.7112207 14.8671875 145.77587891 C13.35745839 151.38890894 12.16164002 157.0691563 10.9375 162.75 C9.11971176 171.04020705 7.26576053 179.31792598 5.25 187.5625 C5.05140381 188.39555664 4.85280762 189.22861328 4.64819336 190.08691406 C3.23623757 195.76376243 3.23623757 195.76376243 1 198 C0.78924332 197.10686096 0.57848663 196.21372192 0.36134338 195.29351807 C-1.62476156 186.87706511 -3.61111962 178.46067194 -5.59776211 170.04434586 C-6.61910688 165.71742241 -7.64035371 161.39047589 -8.66137695 157.06347656 C-9.64669677 152.88780104 -10.63227356 148.71218625 -11.61802864 144.53661346 C-11.99409198 142.94343985 -12.37006267 141.35024436 -12.74593925 139.75702667 C-13.27235694 137.52578536 -13.79910376 135.29462198 -14.32592773 133.06347656 C-14.77560158 131.15819183 -14.77560158 131.15819183 -15.23435974 129.2144165 C-15.6756424 127.36176281 -16.14007108 125.51363257 -16.66712952 123.68353271 C-17 122 -17 122 -16 120 C-15.76879097 117.87980858 -15.59336766 115.75345554 -15.44335938 113.62597656 C-15.39605179 112.97207947 -15.3487442 112.31818237 -15.30000305 111.64447021 C-15.14406415 109.47677825 -14.9940117 107.30871724 -14.84375 105.140625 C-14.73592399 103.63324815 -14.62764131 102.12590391 -14.5189209 100.61859131 C-14.23300942 96.64270228 -13.9516946 92.66650321 -13.67181396 88.69018555 C-13.22467635 82.33971946 -12.7733309 75.989564 -12.31684875 69.63976288 C-12.15873272 67.42539482 -12.00422449 65.21079511 -11.84997559 62.99615479 C-11.75234528 61.62795981 -11.65457428 60.25977486 -11.55664062 58.89160156 C-11.43125916 57.10861664 -11.43125916 57.10861664 -11.30334473 55.28961182 C-11.01406294 52.15250511 -10.54028088 49.10219926 -10 46 C-9.28050084 38.80500844 -11.16409744 35.1650879 -15.125 29.25 C-16.10042513 27.7855889 -17.06212872 26.31191617 -18.0078125 24.828125 C-18.43723145 24.1877832 -18.86665039 23.54744141 -19.30908203 22.88769531 C-20 21 -20 21 -19.35107422 18.98583984 C-17.8731235 16.81351402 -16.30953596 15.17641863 -14.375 13.3984375 C-13.66859375 12.74359375 -12.9621875 12.08875 -12.234375 11.4140625 C-11.49703125 10.74117188 -10.7596875 10.06828125 -10 9.375 C-8.54156682 8.02875399 -7.08322912 6.68240454 -5.625 5.3359375 C-4.97789062 4.74345215 -4.33078125 4.1509668 -3.6640625 3.54052734 C-2.4177511 2.38673847 -1.20094148 1.20094148 0 0 Z " fill="#E7664B" transform="translate(335,304)"/>
<path d="M0 0 C52.14 0 104.28 0 158 0 C155.525 2.475 155.525 2.475 153 5 C147.37285599 11.84209556 143.40487847 18.85732551 140 27 C139.34 28.32 138.68 29.64 138 31 C92.46 31 46.92 31 0 31 C0 20.77 0 10.54 0 0 Z " fill="#1576AC" transform="translate(42,343)"/>
<path d="M0 0 C5.88419905 3.08422994 11.29201168 6.55163161 16.69140625 10.41796875 C19.37511121 12.25705591 22.03583665 13.67392692 25 15 C24.34 15.33 23.68 15.66 23 16 C20.875 15.0625 20.875 15.0625 19 14 C19.02442673 14.56883408 19.04885345 15.13766815 19.07402039 15.72373962 C19.31853805 21.67710839 19.48372912 27.62904048 19.60424805 33.58618164 C19.65936372 35.80487035 19.73428406 38.02316313 19.82983398 40.24047852 C20.64732735 59.70731261 20.64732735 59.70731261 16.64526367 64.40454102 C13.8560053 66.69345484 11.20347517 68.36082943 8 70 C6.63030057 70.99989575 5.27329234 72.01773837 3.9375 73.0625 C1 75 1 75 -1 75 C-0.50628906 76.2065625 -0.01257813 77.413125 0.49609375 78.65625 C1.14372478 80.2706346 1.7908324 81.88522924 2.4375 83.5 C2.76298828 84.29148437 3.08847656 85.08296875 3.42382812 85.8984375 C3.73642578 86.68476563 4.04902344 87.47109375 4.37109375 88.28125 C4.8031311 89.34956055 4.8031311 89.34956055 5.24389648 90.43945312 C7.90843587 99.46292394 6.27989745 103.85223914 1.98046875 112.05078125 C1.44786942 113.10420212 0.91527008 114.15762299 0.36653137 115.2429657 C-1.34123702 118.60932465 -3.07637614 121.9606924 -4.8125 125.3125 C-5.93865374 127.52317008 -7.06302018 129.73475161 -8.18554688 131.94726562 C-13.08766664 141.58229039 -18.07624926 151.16998222 -23.13671875 160.72265625 C-26.69240622 167.43542363 -30.12680215 174.2015515 -33.5 181.0078125 C-33.95384567 181.92332382 -34.40769135 182.83883514 -34.87528992 183.78208923 C-36.72962697 187.52740135 -38.58130263 191.27398793 -40.42626953 195.02392578 C-41.79974253 197.81286392 -43.18053262 200.59807604 -44.5625 203.3828125 C-44.98015625 204.23674591 -45.3978125 205.09067932 -45.828125 205.9704895 C-46.41013672 207.13969437 -46.41013672 207.13969437 -47.00390625 208.33251953 C-47.34236572 209.01911652 -47.6808252 209.7057135 -48.02954102 210.41311646 C-49 212 -49 212 -51 213 C-49.29921476 203.47560263 -47.06958983 194.12513299 -44.6875 184.75 C-42.37958499 175.65218454 -40.18365681 166.54628266 -38.1875 157.375 C-35.59344848 145.4879136 -32.82120859 133.64745575 -30 121.8125 C-29.67222565 120.4371257 -29.67222565 120.4371257 -29.33782959 119.03396606 C-26.67216086 107.86229192 -23.94697642 96.70875678 -21.1171875 85.57739258 C-18.93690066 76.92014485 -16.99665995 68.21047377 -15.05343628 59.49777222 C-12.8862487 49.79015921 -10.59119161 40.12406174 -8.13989258 30.48413086 C-6.18342928 22.78862034 -4.33803931 15.07025591 -2.56005859 7.33154297 C-1.1078145 1.1078145 -1.1078145 1.1078145 0 0 Z " fill="#475C6A" transform="translate(388,289)"/>
<path d="M0 0 C2.99382271 12.67674822 5.98501581 25.35411402 8.9731369 38.03220749 C10.36173502 43.92345208 11.75113364 49.81450511 13.14257812 55.70507812 C14.75381594 62.52675243 16.36254098 69.34901487 17.96875 76.171875 C18.23162811 77.28838943 18.49450623 78.40490387 18.76535034 79.55525208 C22.44671337 95.20747145 26.04354706 110.87533742 29.44030762 126.59197998 C31.10328706 134.24772694 32.97445371 141.81928307 35.02804565 149.37997437 C37.52280605 158.67166243 39.68330346 168.05185204 41.91088867 177.41040039 C42.51689385 179.94912397 43.12698631 182.48687505 43.7409668 185.02368164 C44.63439197 188.71554271 45.51582903 192.41007957 46.39453125 196.10546875 C46.67150345 197.24082565 46.94847565 198.37618256 47.23384094 199.54594421 C47.48127548 200.59836807 47.72871002 201.65079193 47.98364258 202.73510742 C48.20474197 203.65805099 48.42584137 204.58099457 48.65364075 205.53190613 C49.01109054 208.07902918 48.68889289 209.56249169 48 212 C40.65682538 197.54743891 33.33671611 183.08346775 26.04370785 168.60553741 C22.65676116 161.88316833 19.2624282 155.16472684 15.8503418 148.45507812 C12.8757613 142.60570955 9.9153961 136.74940317 6.97175699 130.88439894 C5.41314838 127.78019838 3.84773748 124.67988477 2.26524162 121.58778381 C0.49723789 118.1325604 -1.23898601 114.66191876 -2.97290039 111.18945312 C-3.50013702 110.17093262 -4.02737366 109.15241211 -4.57058716 108.10302734 C-8.02210787 101.09899613 -8.40811491 97.3169484 -6.41162109 89.77832031 C-6.20102051 89.21725586 -5.99041992 88.65619141 -5.7734375 88.078125 C-5.5465625 87.44519531 -5.3196875 86.81226563 -5.0859375 86.16015625 C-4.6059203 84.87043971 -4.12410489 83.58139122 -3.640625 82.29296875 C-2.37893293 78.76168117 -1.6016892 76.52718012 -3 73 C-4.56215155 71.386833 -4.56215155 71.386833 -6.5625 70.01953125 C-7.63371094 69.23352539 -7.63371094 69.23352539 -8.7265625 68.43164062 C-9.47679687 67.89732422 -10.22703125 67.36300781 -11 66.8125 C-12.47939874 65.73599594 -13.95857713 64.65918897 -15.4375 63.58203125 C-16.09621094 63.10999268 -16.75492187 62.6379541 -17.43359375 62.15161133 C-19 61 -19 61 -20 60 C-20.85282556 53.42209972 -20.8721795 46.69877918 -21.06420898 40.07592773 C-21.1457421 37.83513928 -21.26142344 35.59530718 -21.4128418 33.3581543 C-22.61191963 15.26456664 -22.61191963 15.26456664 -18.2041626 9.75543213 C-13.61880185 5.68423751 -6.41976902 0 0 0 Z " fill="#3C4D57" transform="translate(287,290)"/>
<path d="M0 0 C39.6 0 79.2 0 120 0 C120 24 120 24 115.54980469 29.46484375 C105.57186122 34.10804877 93.93174075 32.86104508 83.203125 32.5625 C80.79894186 32.52509014 78.39470004 32.49129258 75.99041748 32.4609375 C69.69633773 32.37185313 63.40425382 32.23405736 57.11132812 32.08575439 C50.6762687 31.94284123 44.24052586 31.84648523 37.8046875 31.74609375 C25.20192141 31.54270007 12.60121914 31.2834863 0 31 C0 20.77 0 10.54 0 0 Z " fill="#1F87B7" transform="translate(162,269)"/>
<path d="M0 0 C5.41416893 5.70682671 5.62289224 13.54327196 6.2578125 21.046875 C5.940016 24.68708949 4.80543778 26.34868279 2.625 29.25 C1.99851563 30.10078125 1.37203125 30.9515625 0.7265625 31.828125 C-1 34 -1 34 -3 36 C-3.15966963 38.99071 -3.15966963 38.99071 -2 42 C0.71410071 44.00226722 0.71410071 44.00226722 4.125 45.4375 C10.61750734 48.67306348 16.08885911 51.7800983 19.1640625 58.5703125 C20.29120412 63.19475336 20.2520583 67.57256136 20.1875 72.3125 C20.18685547 73.23095703 20.18621094 74.14941406 20.18554688 75.09570312 C20.14055525 81.85944475 20.14055525 81.85944475 19 83 C17.06693502 83.09396057 15.13041162 83.11743517 13.19506836 83.11352539 C11.33325172 83.11341209 11.33325172 83.11341209 9.43382263 83.11329651 C8.0691626 83.10818911 6.70450298 83.1029731 5.33984375 83.09765625 C3.95121817 83.095792 2.56259193 83.09436813 1.17396545 83.09336853 C-2.48721115 83.08954387 -6.1483483 83.07971403 -9.80950928 83.06866455 C-13.54292263 83.05844932 -17.27634234 83.05387067 -21.00976562 83.04882812 C-28.33986177 83.03809171 -35.66992536 83.02101591 -43 83 C-43.08184423 80.02026385 -43.14089764 77.04283168 -43.1875 74.0625 C-43.22520508 72.81629883 -43.22520508 72.81629883 -43.26367188 71.54492188 C-43.3466516 64.43632516 -42.05677195 58.35177651 -38.3125 52.25 C-35.19475384 49.21651725 -31.76269104 47.15010916 -28 45 C-27.31550781 44.60296875 -26.63101563 44.2059375 -25.92578125 43.796875 C-24.28968969 42.85438006 -22.64566117 41.92568441 -21 41 C-21.42116872 36.08636493 -23.56479203 34.3534173 -27 31 C-28.06011943 29.03120677 -29.07470849 27.03564133 -30 25 C-30.33 24.67 -30.66 24.34 -31 24 C-31.271127 7.5580839 -31.271127 7.5580839 -26.5 1.41796875 C-19.51210811 -5.1877728 -7.86302481 -4.81409682 0 0 Z " fill="#FDFEFE" transform="translate(105,63)"/>
<path d="M0 0 C67.32 0 134.64 0 204 0 C204.33 0.99 204.66 1.98 205 3 C207.97 3.33 210.94 3.66 214 4 C214.4021875 5.05574219 214.4021875 5.05574219 214.8125 6.1328125 C218.1635461 14.57656683 222.40231955 22.20113083 227 30 C227.33 30.66 227.66 31.32 228 32 C152.76 32 77.52 32 0 32 C0 31.67 0 31.34 0 31 C39.6 31 79.2 31 120 31 C120 21.1 120 11.2 120 1 C80.4 1 40.8 1 0 1 C0 0.67 0 0.34 0 0 Z " fill="#268AB8" transform="translate(42,195)"/>
<path d="M0 0 C5.35189566 5.23753891 10.95556584 11.03728112 11.04296875 18.83203125 C10.29283945 22.4574268 9.04407179 25.92764154 7.82324219 29.41748047 C6.21898547 34.45005091 5.27112397 39.6480257 4.1875 44.8125 C1.86340447 55.43821408 -0.71712035 65.9845872 -3.39599609 76.52563477 C-5.38583514 84.40576891 -7.21213906 92.30805796 -8.9375 100.25 C-12.03776106 114.50547537 -15.59111387 128.63672477 -19.18164062 142.77490234 C-20.13050145 146.51429719 -21.06768059 150.25645218 -22 154 C-22.33 154 -22.66 154 -23 154 C-23.04789169 153.31476761 -23.09578339 152.62953522 -23.14512634 151.92353821 C-23.60056492 145.40830284 -24.0564433 138.89309841 -24.51279354 132.37792683 C-24.74728987 129.02988101 -24.98157826 125.68182095 -25.21557617 122.33374023 C-25.48574272 118.46855753 -25.75649101 114.60341592 -26.02734375 110.73828125 C-26.10967758 109.55857254 -26.19201141 108.37886383 -26.27684021 107.16340637 C-27.12792347 94.44810926 -27.12792347 94.44810926 -28.22291565 81.75280762 C-29.19614811 71.7742032 -27.59927588 65.58335607 -22.02587891 57.22729492 C-19.56047177 53.81133286 -19.56047177 53.81133286 -19.44140625 49.8125 C-21.35056116 47.59232988 -23.35164831 45.67368316 -25.5625 43.75 C-26.44808594 42.97269531 -27.33367187 42.19539063 -28.24609375 41.39453125 C-29.15488281 40.60433594 -30.06367188 39.81414062 -31 39 C-32.70989878 37.48092693 -34.41835497 35.96022766 -36.125 34.4375 C-37.4163804 33.29134404 -38.70793358 32.14538255 -40 31 C-30.51350853 21.3083952 -19.59177546 13.33033941 -8.71142578 5.29394531 C-7.15932071 4.12045646 -5.65269457 2.88741033 -4.15234375 1.6484375 C-2 0 -2 0 0 0 Z " fill="#FEFDFD" transform="translate(377,273)"/>
<path d="M0 0 C35.31 0 70.62 0 107 0 C105.72378508 2.55242984 104.73479295 2.74799428 102.15234375 3.890625 C100.92088623 4.44931274 100.92088623 4.44931274 99.66455078 5.01928711 C98.76462402 5.42542236 97.86469727 5.83155762 96.9375 6.25 C79.10844609 14.53493946 58.48627409 24.31590308 44.48791504 38.53604126 C40.53358148 42.43262923 37.7716952 43.68403679 32.22839355 43.67895508 C31.01899109 43.63291138 31.01899109 43.63291138 29.78515625 43.5859375 C29.02553589 43.57989502 28.26591553 43.57385254 27.48327637 43.56762695 C24.6757892 43.53649653 21.86908362 43.45272818 19.0625 43.375 C9.6265625 43.189375 9.6265625 43.189375 0 43 C0 28.81 0 14.62 0 0 Z " fill="#E3E4E7" transform="translate(162,300)"/>
<path d="M0 0 C33.99 0 67.98 0 103 0 C103 6 103 6 101.1640625 7.87890625 C100.32617188 8.43449219 99.48828125 8.99007812 98.625 9.5625 C94.1331274 12.870617 90.83191413 16.33481257 87.5 20.75 C87.07928223 21.30502197 86.65856445 21.86004395 86.22509766 22.43188477 C84.16107192 25.22401774 82.56188152 27.87623696 81 31 C54.27 31 27.54 31 0 31 C0 20.77 0 10.54 0 0 Z " fill="#1777AC" transform="translate(179,50)"/>
<path d="M0 0 C21.78 0 43.56 0 66 0 C66 7 66 7 65 10 C65 17.26 65 24.52 65 32 C43.55 32 22.1 32 0 32 C0 21.44 0 10.88 0 0 Z " fill="#1C79AD" transform="translate(179,122)"/>
<path d="M0 0 C3.63 0 7.26 0 11 0 C12.93907928 12.01707428 13.90067436 24.0422697 14.80493164 36.17431641 C15.06041912 39.59712215 15.32357148 43.0192724 15.58789062 46.44140625 C16.00861557 51.93546367 16.40487685 57.43083939 16.78445435 62.92788696 C16.92446395 64.92340541 17.07004139 66.91854385 17.22213745 68.91317749 C17.9825089 78.93863271 18.46317896 87.8321609 15.4375 97.5625 C14.87108657 99.58875387 14.30874551 101.61614953 13.75 103.64453125 C13.45867187 104.67787598 13.16734375 105.7112207 12.8671875 106.77587891 C11.35746855 112.38887116 10.16103281 118.06905413 8.9375 123.75 C6.50580201 134.89122031 3.84555735 145.95772658 1 157 C0.67 157 0.34 157 0 157 C0 105.19 0 53.38 0 0 Z " fill="#D8523A" transform="translate(337,343)"/>
<path d="M0 0 C3.48552938 3.17151773 5.89743721 6.70707728 8.25 10.75 C8.61351562 11.33265625 8.97703125 11.9153125 9.3515625 12.515625 C12.58262483 18.054589 12.60798074 22.47019422 11.51524353 28.81439209 C10.97087152 32.18009331 10.68979132 35.49014822 10.45922852 38.89160156 C10.41352722 39.55250793 10.36782593 40.21341431 10.32073975 40.89434814 C10.22245661 42.31834222 10.12538733 43.7424205 10.02942085 45.16657257 C9.87695903 47.41939782 9.71983073 49.67185203 9.56126404 51.92425537 C9.11100505 58.3243399 8.66494034 64.724683 8.23217773 71.12597656 C7.96657557 75.04973005 7.6920677 78.97277344 7.411726 82.89550018 C7.30669674 84.38963375 7.20506708 85.88401027 7.10687447 87.3786087 C6.96971656 89.46175326 6.82127024 91.54380396 6.67016602 93.62597656 C6.58879898 94.81145081 6.50743195 95.99692505 6.42359924 97.21832275 C6 100 6 100 4 102 C3.85602783 101.37923584 3.71205566 100.75847168 3.5637207 100.11889648 C3.09964452 98.11997668 2.6348702 96.12121891 2.16967773 94.12255859 C1.58558985 91.61152966 1.00313653 89.10012009 0.42211914 86.58837891 C-1.51155973 78.25348654 -3.49646166 69.93241681 -5.52403259 61.61982727 C-6.73971114 56.62977539 -7.94455323 51.63713075 -9.14883423 46.64431763 C-9.75857429 44.128842 -10.37331276 41.61457278 -10.99301147 39.10153198 C-11.87395503 35.52637014 -12.73750125 31.94739895 -13.59765625 28.3671875 C-14.00641495 26.73613319 -14.00641495 26.73613319 -14.4234314 25.0721283 C-14.66147491 24.06718826 -14.89951843 23.06224823 -15.14477539 22.02685547 C-15.35904678 21.14915497 -15.57331818 20.27145447 -15.79408264 19.36715698 C-16.03938821 16.54720631 -15.51925275 15.35358889 -14 13 C-9.75056929 8.25800266 -5.11787315 3.79713169 0 0 Z " fill="#D3D6D9" transform="translate(314,324)"/>
<path d="M0 0 C5.49277939 3.93786516 10.33525183 8.10831813 15 13 C15.66 13.66 16.32 14.32 17 15 C16.72729492 17.4855957 16.72729492 17.4855957 15.98046875 20.67578125 C15.56643799 22.47921997 15.56643799 22.47921997 15.14404297 24.3190918 C14.82555492 25.65031395 14.50669619 26.98144747 14.1875 28.3125 C13.86523406 29.6922743 13.54379861 31.0722428 13.22314453 32.45239258 C12.1674512 36.97277952 11.08518437 41.48661689 10 46 C9.812099 46.78387085 9.624198 47.5677417 9.43060303 48.37536621 C5.05973487 66.60940603 0.59660053 84.82148433 -4 103 C-4.33 103 -4.66 103 -5 103 C-5.04789169 102.31476761 -5.09578339 101.62953522 -5.14512634 100.92353821 C-5.60056492 94.40830284 -6.0564433 87.89309841 -6.51279354 81.37792683 C-6.74728987 78.02988101 -6.98157826 74.68182095 -7.21557617 71.33374023 C-7.48574272 67.46855753 -7.75649101 63.60341592 -8.02734375 59.73828125 C-8.10967758 58.55857254 -8.19201141 57.37886383 -8.27684021 56.16340637 C-9.19056077 42.4809112 -9.19056077 42.4809112 -10.44921875 28.828125 C-11.23749748 16.99102146 -6.62577426 9.56004572 0 0 Z " fill="#D3D6D9" transform="translate(359,324)"/>
<path d="M0 0 C1.05316406 0.47050781 2.10632813 0.94101563 3.19140625 1.42578125 C15.07210199 6.60227109 26.13119654 9.16159951 39 11 C39.33 23.87 39.66 36.74 40 50 C39.01 50.495 39.01 50.495 38 51 C38 50.34 38 49.68 38 49 C37.41911621 48.72921631 36.83823242 48.45843262 36.23974609 48.17944336 C33.99937565 46.99967122 32.15290863 45.69157106 30.1640625 44.12890625 C29.07158203 43.27474121 29.07158203 43.27474121 27.95703125 42.40332031 C27.18746094 41.79584961 26.41789062 41.18837891 25.625 40.5625 C24.43583984 39.63002441 24.43583984 39.63002441 23.22265625 38.67871094 C21.59943372 37.40527593 19.97736326 36.13037105 18.35644531 34.85400391 C16.16604103 33.13063776 13.97091839 31.41354698 11.7734375 29.69921875 C10.51551878 28.71628176 9.25770011 27.73321669 8 26.75 C7.41943848 26.2969751 6.83887695 25.8439502 6.24072266 25.37719727 C4.05447329 23.66169515 1.96717198 21.96717198 0 20 C-0.22705078 17.93701172 -0.22705078 17.93701172 -0.1953125 15.4296875 C-0.18886719 14.53378906 -0.18242187 13.63789063 -0.17578125 12.71484375 C-0.15902344 11.77769531 -0.14226562 10.84054687 -0.125 9.875 C-0.11597656 8.93011719 -0.10695313 7.98523438 -0.09765625 7.01171875 C-0.07404522 4.67422708 -0.04111516 2.33723877 0 0 Z " fill="#D5B79F" transform="translate(298,253)"/>
<path d="M0 0 C12.54 0 25.08 0 38 0 C36.35 1.65 34.7 3.3 33 5 C27.37285599 11.84209556 23.40487847 18.85732551 20 27 C19.34 28.32 18.68 29.64 18 31 C12.06 31 6.12 31 0 31 C0 20.77 0 10.54 0 0 Z " fill="#1E86B6" transform="translate(162,343)"/>
<path d="M0 0 C4.69226327 1.17306582 6.94929392 3.43638462 10.3125 6.6875 C11.46790121 7.78084558 12.62414418 8.87330235 13.78125 9.96484375 C14.33425781 10.48933105 14.88726562 11.01381836 15.45703125 11.55419922 C18.21799898 14.14129588 21.09965668 16.57180559 24 19 C22.33740574 24.61438867 19.64832363 29.06670988 16.55859375 34 C14.95773313 37.08135579 14.3728017 39.56818161 14 43 C13.67 41.68 13.34 40.36 13 39 C9.37 39 5.74 39 2 39 C2 91.47 2 143.94 2 198 C1.67 198 1.34 198 1 198 C0.67 132.66 0.34 67.32 0 0 Z " fill="#E56B52" transform="translate(335,304)"/>
<path d="M0 0 C2.77017158 2.77017158 3.46818645 6.02572539 4.6171875 9.6796875 C4.87068466 10.46789886 5.12418182 11.25611023 5.38536072 12.06820679 C6.22072564 14.66874844 7.04784411 17.27183687 7.875 19.875 C9.04004252 23.51396252 10.20926029 27.15157737 11.37890625 30.7890625 C11.67663437 31.71674438 11.97436249 32.64442627 12.28111267 33.60021973 C14.31577669 39.92430592 16.40209582 46.22924933 18.52734375 52.5234375 C18.80632507 53.3511264 19.0853064 54.17881531 19.3727417 55.03158569 C20.44843808 58.22029954 21.52507326 61.40862754 22.61297607 64.59320068 C23.35775818 66.7739857 24.09545601 68.95705717 24.83203125 71.140625 C25.25202393 72.37329102 25.6720166 73.60595703 26.10473633 74.87597656 C27 78 27 78 27 82 C22.38 82 17.76 82 13 82 C11.06987005 73.87207083 9.72918207 65.66414062 8.3984375 57.421875 C8.15478945 55.92212061 7.91102314 54.42238542 7.66714478 52.92266846 C7.15943737 49.79638995 6.65375393 46.6697922 6.14941406 43.54296875 C5.50384118 39.54211174 4.85224803 35.5422613 4.19904137 31.5426445 C3.69528846 28.45298287 3.19518272 25.36273915 2.69612503 22.27231598 C2.45734033 20.79696989 2.21732078 19.3218231 1.97602463 17.84688568 C1.63958034 15.78751077 1.30817882 13.727384 0.97802734 11.66699219 C0.78864594 10.49722839 0.59926453 9.3274646 0.40414429 8.12225342 C0.04731293 5.36552037 -0.0813933 2.77403645 0 0 Z " fill="#3B4C56" transform="translate(226,410)"/>
<path d="M0 0 C1.25010409 3.64002518 0.78947042 6.45860163 0.14453125 10.21484375 C-0.16774414 12.06335938 -0.16774414 12.06335938 -0.48632812 13.94921875 C-0.7197691 15.27869555 -0.95349979 16.60812151 -1.1875 17.9375 C-1.42302861 19.30980967 -1.65805048 20.68220641 -1.89257812 22.0546875 C-3.32004227 30.35515437 -4.84961738 38.63406351 -6.47045898 46.89892578 C-8.9245333 59.54789758 -10.91927939 72.28543267 -13 85 C-17.62 85 -22.24 85 -27 85 C-25.75537917 79.08169355 -24.27886947 73.37627332 -22.3828125 67.63671875 C-22.12931534 66.85823074 -21.87581818 66.07974274 -21.61463928 65.27766418 C-20.78897843 62.74620806 -19.95714972 60.21682973 -19.125 57.6875 C-18.54832885 55.9245626 -17.97191636 54.16154058 -17.39575195 52.3984375 C-11.6717022 34.90764205 -5.85081778 17.44874371 0 0 Z " fill="#455B68" transform="translate(461,407)"/>
<path d="M0 0 C5.94 0 11.88 0 18 0 C17.66226563 1.69125 17.32453125 3.3825 16.9765625 5.125 C14.5566211 17.3847106 12.25893071 29.56101299 11 42 C7.37 42 3.74 42 0 42 C0 28.14 0 14.28 0 0 Z " fill="#E4E4E6" transform="translate(162,374)"/>
<path d="M0 0 C0.66 0 1.32 0 2 0 C2 12.21 2 24.42 2 37 C-1.63 37 -5.26 37 -9 37 C-11.74047744 34.05711919 -13.09255645 32.21240682 -14.8125 28.75 C-15.47862305 27.58404297 -15.47862305 27.58404297 -16.15820312 26.39453125 C-18.44386434 22.16984937 -18.44386434 22.16984937 -19 20 C-17.89958449 16.67112294 -15.88491897 14.70439902 -13.33984375 12.36328125 C-12.62892578 11.70392578 -11.91800781 11.04457031 -11.18554688 10.36523438 C-10.44369141 9.68783203 -9.70183594 9.01042969 -8.9375 8.3125 C-8.19177734 7.62349609 -7.44605469 6.93449219 -6.67773438 6.22460938 C-5.30444309 4.95609236 -3.92892906 3.68997464 -2.55053711 2.42700195 C-1.68700524 1.63226982 -0.8298453 0.8298453 0 0 Z " fill="#D9533B" transform="translate(334,305)"/>
</svg>
